<svg width="18" height="18" viewBox="0 0 18 18" fill="none" xmlns="http://www.w3.org/2000/svg">
<path fill-rule="evenodd" clip-rule="evenodd" d="M4.01143 2.40004C5.54814 0.863321 7.63236 0 9.8056 0C11.9788 0 14.0631 0.863321 15.5998 2.40004C17.1365 3.93676 17.9998 6.02099 17.9998 8.19424C17.9998 10.3675 17.1365 12.4517 15.5998 13.9884C14.0631 15.5252 11.9788 16.3885 9.8056 16.3885C7.8593 16.3885 5.9844 15.6961 4.51024 14.4476L0.957983 18L0 17.0421L3.55227 13.4896C2.30384 12.0155 1.61141 10.1406 1.61141 8.19424C1.61141 6.02099 2.47472 3.93676 4.01143 2.40004ZM9.8056 1.35477C7.99167 1.35477 6.25204 2.07535 4.9694 3.358C3.68676 4.64065 2.96618 6.3803 2.96618 8.19424C2.96618 10.0082 3.68676 11.7478 4.9694 13.0305C6.25204 14.3131 7.99167 15.0337 9.8056 15.0337C11.6195 15.0337 13.3591 14.3131 14.6418 13.0305C15.9244 11.7478 16.645 10.0082 16.645 8.19424C16.645 6.3803 15.9244 4.64065 14.6418 3.358C13.3591 2.07535 11.6195 1.35477 9.8056 1.35477Z" fill="#C5C5C5"/>
</svg>
